<mxfile host="65bd71144e">
    <diagram id="z9v-jwpSNCXLmAZhCo7Q" name="Page-1">
        <mxGraphModel dx="2171" dy="1395" grid="1" gridSize="10" guides="1" tooltips="1" connect="1" arrows="1" fold="1" page="1" pageScale="1" pageWidth="1169" pageHeight="827" math="0" shadow="0">
            <root>
                <mxCell id="0"/>
                <mxCell id="1" parent="0"/>
                <mxCell id="IdU-mIbeNGO67R3H7cQT-1" value="Car" style="whiteSpace=wrap;html=1;align=center;" parent="1" vertex="1">
                    <mxGeometry x="370" y="360" width="190" height="80" as="geometry"/>
                </mxCell>
                <mxCell id="IdU-mIbeNGO67R3H7cQT-2" value="id" style="ellipse;whiteSpace=wrap;html=1;align=center;" parent="1" vertex="1">
                    <mxGeometry x="210" y="454" width="100" height="40" as="geometry"/>
                </mxCell>
                <mxCell id="IdU-mIbeNGO67R3H7cQT-4" value="" style="endArrow=none;html=1;rounded=0;exitX=0;exitY=0.75;exitDx=0;exitDy=0;entryX=0.5;entryY=0;entryDx=0;entryDy=0;" parent="1" source="IdU-mIbeNGO67R3H7cQT-1" target="IdU-mIbeNGO67R3H7cQT-2" edge="1">
                    <mxGeometry relative="1" as="geometry">
                        <mxPoint x="390" y="519.5" as="sourcePoint"/>
                        <mxPoint x="550" y="519.5" as="targetPoint"/>
                    </mxGeometry>
                </mxCell>
                <mxCell id="IdU-mIbeNGO67R3H7cQT-7" value="torque" style="ellipse;whiteSpace=wrap;html=1;align=center;" parent="1" vertex="1">
                    <mxGeometry x="530" y="570" width="100" height="40" as="geometry"/>
                </mxCell>
                <mxCell id="IdU-mIbeNGO67R3H7cQT-8" value="" style="endArrow=none;html=1;rounded=0;entryX=0.5;entryY=0;entryDx=0;entryDy=0;exitX=0.67;exitY=0.975;exitDx=0;exitDy=0;exitPerimeter=0;" parent="1" source="IdU-mIbeNGO67R3H7cQT-1" target="IdU-mIbeNGO67R3H7cQT-7" edge="1">
                    <mxGeometry relative="1" as="geometry">
                        <mxPoint x="490" y="500" as="sourcePoint"/>
                        <mxPoint x="560" y="529.5" as="targetPoint"/>
                    </mxGeometry>
                </mxCell>
                <mxCell id="IdU-mIbeNGO67R3H7cQT-9" value="horsepower" style="ellipse;whiteSpace=wrap;html=1;align=center;" parent="1" vertex="1">
                    <mxGeometry x="420" y="580" width="100" height="40" as="geometry"/>
                </mxCell>
                <mxCell id="IdU-mIbeNGO67R3H7cQT-10" value="" style="endArrow=none;html=1;rounded=0;exitX=0.57;exitY=0.975;exitDx=0;exitDy=0;entryX=0.5;entryY=0;entryDx=0;entryDy=0;exitPerimeter=0;" parent="1" source="IdU-mIbeNGO67R3H7cQT-1" target="IdU-mIbeNGO67R3H7cQT-9" edge="1">
                    <mxGeometry relative="1" as="geometry">
                        <mxPoint x="440" y="460" as="sourcePoint"/>
                        <mxPoint x="570" y="539.5" as="targetPoint"/>
                    </mxGeometry>
                </mxCell>
                <mxCell id="IdU-mIbeNGO67R3H7cQT-11" value="year" style="ellipse;whiteSpace=wrap;html=1;align=center;" parent="1" vertex="1">
                    <mxGeometry x="310" y="570" width="100" height="40" as="geometry"/>
                </mxCell>
                <mxCell id="IdU-mIbeNGO67R3H7cQT-12" value="" style="endArrow=none;html=1;rounded=0;exitX=0.33;exitY=1;exitDx=0;exitDy=0;entryX=0.5;entryY=0;entryDx=0;entryDy=0;exitPerimeter=0;" parent="1" source="IdU-mIbeNGO67R3H7cQT-1" target="IdU-mIbeNGO67R3H7cQT-11" edge="1">
                    <mxGeometry relative="1" as="geometry">
                        <mxPoint x="450" y="470" as="sourcePoint"/>
                        <mxPoint x="580" y="549.5" as="targetPoint"/>
                    </mxGeometry>
                </mxCell>
                <mxCell id="IdU-mIbeNGO67R3H7cQT-13" value="model" style="ellipse;whiteSpace=wrap;html=1;align=center;" parent="1" vertex="1">
                    <mxGeometry x="240" y="510" width="100" height="40" as="geometry"/>
                </mxCell>
                <mxCell id="IdU-mIbeNGO67R3H7cQT-14" value="" style="endArrow=none;html=1;rounded=0;exitX=0.25;exitY=1;exitDx=0;exitDy=0;entryX=0.5;entryY=0;entryDx=0;entryDy=0;" parent="1" source="IdU-mIbeNGO67R3H7cQT-1" target="IdU-mIbeNGO67R3H7cQT-13" edge="1">
                    <mxGeometry relative="1" as="geometry">
                        <mxPoint x="460" y="480" as="sourcePoint"/>
                        <mxPoint x="590" y="559.5" as="targetPoint"/>
                    </mxGeometry>
                </mxCell>
                <mxCell id="IdU-mIbeNGO67R3H7cQT-15" value="make" style="ellipse;whiteSpace=wrap;html=1;align=center;" parent="1" vertex="1">
                    <mxGeometry x="580" y="510" width="100" height="40" as="geometry"/>
                </mxCell>
                <mxCell id="IdU-mIbeNGO67R3H7cQT-16" value="" style="endArrow=none;html=1;rounded=0;exitX=0.75;exitY=1;exitDx=0;exitDy=0;entryX=0.5;entryY=0;entryDx=0;entryDy=0;" parent="1" source="IdU-mIbeNGO67R3H7cQT-1" target="IdU-mIbeNGO67R3H7cQT-15" edge="1">
                    <mxGeometry relative="1" as="geometry">
                        <mxPoint x="570" y="434" as="sourcePoint"/>
                        <mxPoint x="700" y="513.5" as="targetPoint"/>
                    </mxGeometry>
                </mxCell>
                <mxCell id="IdU-mIbeNGO67R3H7cQT-17" value="engine_make" style="ellipse;whiteSpace=wrap;html=1;align=center;" parent="1" vertex="1">
                    <mxGeometry x="670" y="470" width="100" height="40" as="geometry"/>
                </mxCell>
                <mxCell id="IdU-mIbeNGO67R3H7cQT-18" value="" style="endArrow=none;html=1;rounded=0;exitX=1;exitY=0.75;exitDx=0;exitDy=0;entryX=0;entryY=0;entryDx=0;entryDy=0;" parent="1" source="IdU-mIbeNGO67R3H7cQT-1" target="IdU-mIbeNGO67R3H7cQT-17" edge="1">
                    <mxGeometry relative="1" as="geometry">
                        <mxPoint x="510" y="400" as="sourcePoint"/>
                        <mxPoint x="765" y="473.5" as="targetPoint"/>
                    </mxGeometry>
                </mxCell>
                <mxCell id="IdU-mIbeNGO67R3H7cQT-19" value="engine_capacity" style="ellipse;whiteSpace=wrap;html=1;align=center;" parent="1" vertex="1">
                    <mxGeometry x="140" y="380" width="100" height="40" as="geometry"/>
                </mxCell>
                <mxCell id="IdU-mIbeNGO67R3H7cQT-20" value="" style="endArrow=none;html=1;rounded=0;exitX=0;exitY=0.5;exitDx=0;exitDy=0;entryX=1;entryY=0.5;entryDx=0;entryDy=0;" parent="1" source="IdU-mIbeNGO67R3H7cQT-1" target="IdU-mIbeNGO67R3H7cQT-19" edge="1">
                    <mxGeometry relative="1" as="geometry">
                        <mxPoint x="320" y="376" as="sourcePoint"/>
                        <mxPoint x="500" y="465.5" as="targetPoint"/>
                    </mxGeometry>
                </mxCell>
                <mxCell id="IdU-mIbeNGO67R3H7cQT-21" value="engine_cylinders" style="ellipse;whiteSpace=wrap;html=1;align=center;" parent="1" vertex="1">
                    <mxGeometry x="690" y="405" width="100" height="40" as="geometry"/>
                </mxCell>
                <mxCell id="IdU-mIbeNGO67R3H7cQT-22" value="" style="endArrow=none;html=1;rounded=0;exitX=1;exitY=0.5;exitDx=0;exitDy=0;entryX=0;entryY=0.5;entryDx=0;entryDy=0;" parent="1" source="IdU-mIbeNGO67R3H7cQT-1" target="IdU-mIbeNGO67R3H7cQT-21" edge="1">
                    <mxGeometry relative="1" as="geometry">
                        <mxPoint x="580" y="355" as="sourcePoint"/>
                        <mxPoint x="785" y="408.5" as="targetPoint"/>
                    </mxGeometry>
                </mxCell>
                <mxCell id="IdU-mIbeNGO67R3H7cQT-23" value="engine_modifer" style="ellipse;whiteSpace=wrap;html=1;align=center;" parent="1" vertex="1">
                    <mxGeometry x="130" y="320" width="100" height="40" as="geometry"/>
                </mxCell>
                <mxCell id="IdU-mIbeNGO67R3H7cQT-24" value="" style="endArrow=none;html=1;rounded=0;exitX=0;exitY=0.25;exitDx=0;exitDy=0;entryX=1;entryY=0.5;entryDx=0;entryDy=0;" parent="1" source="IdU-mIbeNGO67R3H7cQT-1" target="IdU-mIbeNGO67R3H7cQT-23" edge="1">
                    <mxGeometry relative="1" as="geometry">
                        <mxPoint x="360" y="340" as="sourcePoint"/>
                        <mxPoint x="490" y="405.5" as="targetPoint"/>
                    </mxGeometry>
                </mxCell>
                <mxCell id="IdU-mIbeNGO67R3H7cQT-25" value="Driveline" style="whiteSpace=wrap;html=1;align=center;" parent="1" vertex="1">
                    <mxGeometry x="780" y="50" width="190" height="80" as="geometry"/>
                </mxCell>
                <mxCell id="IdU-mIbeNGO67R3H7cQT-26" value="id" style="ellipse;whiteSpace=wrap;html=1;align=center;" parent="1" vertex="1">
                    <mxGeometry x="830" y="200" width="100" height="40" as="geometry"/>
                </mxCell>
                <mxCell id="IdU-mIbeNGO67R3H7cQT-27" value="" style="endArrow=none;html=1;rounded=0;exitX=0.5;exitY=1;exitDx=0;exitDy=0;entryX=0.5;entryY=0;entryDx=0;entryDy=0;" parent="1" source="IdU-mIbeNGO67R3H7cQT-25" target="IdU-mIbeNGO67R3H7cQT-26" edge="1">
                    <mxGeometry relative="1" as="geometry">
                        <mxPoint x="660" y="270" as="sourcePoint"/>
                        <mxPoint x="885" y="278.5" as="targetPoint"/>
                    </mxGeometry>
                </mxCell>
                <mxCell id="IdU-mIbeNGO67R3H7cQT-28" value="name" style="ellipse;whiteSpace=wrap;html=1;align=center;" parent="1" vertex="1">
                    <mxGeometry x="1010" y="165" width="100" height="40" as="geometry"/>
                </mxCell>
                <mxCell id="IdU-mIbeNGO67R3H7cQT-29" value="" style="endArrow=none;html=1;rounded=0;entryX=0;entryY=0.5;entryDx=0;entryDy=0;" parent="1" source="IdU-mIbeNGO67R3H7cQT-25" target="IdU-mIbeNGO67R3H7cQT-28" edge="1">
                    <mxGeometry relative="1" as="geometry">
                        <mxPoint x="880" y="160" as="sourcePoint"/>
                        <mxPoint x="1105" y="168.5" as="targetPoint"/>
                    </mxGeometry>
                </mxCell>
                <mxCell id="IdU-mIbeNGO67R3H7cQT-30" value="Transmission" style="whiteSpace=wrap;html=1;align=center;" parent="1" vertex="1">
                    <mxGeometry x="410" y="-60" width="190" height="80" as="geometry"/>
                </mxCell>
                <mxCell id="IdU-mIbeNGO67R3H7cQT-31" value="id" style="ellipse;whiteSpace=wrap;html=1;align=center;" parent="1" vertex="1">
                    <mxGeometry x="455" y="-140" width="100" height="40" as="geometry"/>
                </mxCell>
                <mxCell id="IdU-mIbeNGO67R3H7cQT-32" value="" style="endArrow=none;html=1;rounded=0;exitX=0.5;exitY=0;exitDx=0;exitDy=0;entryX=0.5;entryY=1;entryDx=0;entryDy=0;" parent="1" source="IdU-mIbeNGO67R3H7cQT-30" target="IdU-mIbeNGO67R3H7cQT-31" edge="1">
                    <mxGeometry relative="1" as="geometry">
                        <mxPoint x="290" y="160" as="sourcePoint"/>
                        <mxPoint x="515" y="168.5" as="targetPoint"/>
                    </mxGeometry>
                </mxCell>
                <mxCell id="IdU-mIbeNGO67R3H7cQT-33" value="name" style="ellipse;whiteSpace=wrap;html=1;align=center;" parent="1" vertex="1">
                    <mxGeometry x="620" y="-130" width="100" height="40" as="geometry"/>
                </mxCell>
                <mxCell id="IdU-mIbeNGO67R3H7cQT-34" value="" style="endArrow=none;html=1;rounded=0;exitX=0.75;exitY=0;exitDx=0;exitDy=0;" parent="1" source="IdU-mIbeNGO67R3H7cQT-30" edge="1">
                    <mxGeometry relative="1" as="geometry">
                        <mxPoint x="510" y="50" as="sourcePoint"/>
                        <mxPoint x="630" y="-100" as="targetPoint"/>
                    </mxGeometry>
                </mxCell>
                <mxCell id="IdU-mIbeNGO67R3H7cQT-37" value="FuelType" style="whiteSpace=wrap;html=1;align=center;" parent="1" vertex="1">
                    <mxGeometry x="140" y="-70" width="190" height="80" as="geometry"/>
                </mxCell>
                <mxCell id="IdU-mIbeNGO67R3H7cQT-38" value="id" style="ellipse;whiteSpace=wrap;html=1;align=center;" parent="1" vertex="1">
                    <mxGeometry x="185" y="-150" width="100" height="40" as="geometry"/>
                </mxCell>
                <mxCell id="IdU-mIbeNGO67R3H7cQT-39" value="" style="endArrow=none;html=1;rounded=0;exitX=0.5;exitY=0;exitDx=0;exitDy=0;entryX=0.5;entryY=1;entryDx=0;entryDy=0;" parent="1" source="IdU-mIbeNGO67R3H7cQT-37" target="IdU-mIbeNGO67R3H7cQT-38" edge="1">
                    <mxGeometry relative="1" as="geometry">
                        <mxPoint x="20" y="150" as="sourcePoint"/>
                        <mxPoint x="245" y="158.5" as="targetPoint"/>
                    </mxGeometry>
                </mxCell>
                <mxCell id="IdU-mIbeNGO67R3H7cQT-40" value="name" style="ellipse;whiteSpace=wrap;html=1;align=center;" parent="1" vertex="1">
                    <mxGeometry x="10" y="-150" width="100" height="40" as="geometry"/>
                </mxCell>
                <mxCell id="IdU-mIbeNGO67R3H7cQT-41" value="" style="endArrow=none;html=1;rounded=0;exitX=0.107;exitY=-0.029;exitDx=0;exitDy=0;exitPerimeter=0;entryX=1;entryY=1;entryDx=0;entryDy=0;" parent="1" source="IdU-mIbeNGO67R3H7cQT-37" target="IdU-mIbeNGO67R3H7cQT-40" edge="1">
                    <mxGeometry relative="1" as="geometry">
                        <mxPoint x="240" y="40" as="sourcePoint"/>
                        <mxPoint x="360" y="-110" as="targetPoint"/>
                    </mxGeometry>
                </mxCell>
                <mxCell id="IdU-mIbeNGO67R3H7cQT-42" value="Mileage" style="whiteSpace=wrap;html=1;align=center;" parent="1" vertex="1">
                    <mxGeometry x="-60" y="140" width="190" height="80" as="geometry"/>
                </mxCell>
                <mxCell id="IdU-mIbeNGO67R3H7cQT-43" value="id" style="ellipse;whiteSpace=wrap;html=1;align=center;" parent="1" vertex="1">
                    <mxGeometry x="-15" y="60" width="100" height="40" as="geometry"/>
                </mxCell>
                <mxCell id="IdU-mIbeNGO67R3H7cQT-44" value="" style="endArrow=none;html=1;rounded=0;exitX=0.5;exitY=0;exitDx=0;exitDy=0;entryX=0.5;entryY=1;entryDx=0;entryDy=0;" parent="1" source="IdU-mIbeNGO67R3H7cQT-42" target="IdU-mIbeNGO67R3H7cQT-43" edge="1">
                    <mxGeometry relative="1" as="geometry">
                        <mxPoint x="-180" y="360" as="sourcePoint"/>
                        <mxPoint x="45" y="368.5" as="targetPoint"/>
                    </mxGeometry>
                </mxCell>
                <mxCell id="IdU-mIbeNGO67R3H7cQT-45" value="city_mpg" style="ellipse;whiteSpace=wrap;html=1;align=center;" parent="1" vertex="1">
                    <mxGeometry x="-190" y="60" width="100" height="40" as="geometry"/>
                </mxCell>
                <mxCell id="IdU-mIbeNGO67R3H7cQT-46" value="" style="endArrow=none;html=1;rounded=0;exitX=0.107;exitY=-0.029;exitDx=0;exitDy=0;exitPerimeter=0;entryX=1;entryY=1;entryDx=0;entryDy=0;" parent="1" source="IdU-mIbeNGO67R3H7cQT-42" target="IdU-mIbeNGO67R3H7cQT-45" edge="1">
                    <mxGeometry relative="1" as="geometry">
                        <mxPoint x="40" y="250" as="sourcePoint"/>
                        <mxPoint x="160" y="100" as="targetPoint"/>
                    </mxGeometry>
                </mxCell>
                <mxCell id="IdU-mIbeNGO67R3H7cQT-47" value="highway_mpg" style="ellipse;whiteSpace=wrap;html=1;align=center;" parent="1" vertex="1">
                    <mxGeometry x="-230" y="160" width="100" height="40" as="geometry"/>
                </mxCell>
                <mxCell id="IdU-mIbeNGO67R3H7cQT-48" value="" style="endArrow=none;html=1;rounded=0;exitX=0;exitY=0.5;exitDx=0;exitDy=0;entryX=1;entryY=0.5;entryDx=0;entryDy=0;" parent="1" source="IdU-mIbeNGO67R3H7cQT-42" target="IdU-mIbeNGO67R3H7cQT-47" edge="1">
                    <mxGeometry relative="1" as="geometry">
                        <mxPoint x="-79.67000000000007" y="227.68000000000006" as="sourcePoint"/>
                        <mxPoint x="120" y="190" as="targetPoint"/>
                    </mxGeometry>
                </mxCell>
                <mxCell id="IdU-mIbeNGO67R3H7cQT-49" value="" style="endArrow=none;html=1;rounded=0;exitX=0.75;exitY=0;exitDx=0;exitDy=0;entryX=0;entryY=0.5;entryDx=0;entryDy=0;startArrow=none;" parent="1" source="IdU-mIbeNGO67R3H7cQT-61" target="IdU-mIbeNGO67R3H7cQT-25" edge="1">
                    <mxGeometry relative="1" as="geometry">
                        <mxPoint x="400" y="250" as="sourcePoint"/>
                        <mxPoint x="560" y="250" as="targetPoint"/>
                    </mxGeometry>
                </mxCell>
                <mxCell id="IdU-mIbeNGO67R3H7cQT-51" value="&lt;font style=&quot;font-size: 19px&quot;&gt;1&lt;/font&gt;" style="resizable=0;html=1;align=right;verticalAlign=bottom;" parent="IdU-mIbeNGO67R3H7cQT-49" connectable="0" vertex="1">
                    <mxGeometry x="1" relative="1" as="geometry">
                        <mxPoint y="40" as="offset"/>
                    </mxGeometry>
                </mxCell>
                <mxCell id="IdU-mIbeNGO67R3H7cQT-52" value="" style="endArrow=none;html=1;rounded=0;exitX=0.5;exitY=0;exitDx=0;exitDy=0;entryX=0.5;entryY=1;entryDx=0;entryDy=0;startArrow=none;" parent="1" source="IdU-mIbeNGO67R3H7cQT-65" target="IdU-mIbeNGO67R3H7cQT-30" edge="1">
                    <mxGeometry relative="1" as="geometry">
                        <mxPoint x="412.5" y="355" as="sourcePoint"/>
                        <mxPoint x="680" y="85" as="targetPoint"/>
                    </mxGeometry>
                </mxCell>
                <mxCell id="IdU-mIbeNGO67R3H7cQT-54" value="&lt;font style=&quot;font-size: 19px&quot;&gt;1&lt;/font&gt;" style="resizable=0;html=1;align=right;verticalAlign=bottom;" parent="IdU-mIbeNGO67R3H7cQT-52" connectable="0" vertex="1">
                    <mxGeometry x="1" relative="1" as="geometry">
                        <mxPoint x="15" y="30" as="offset"/>
                    </mxGeometry>
                </mxCell>
                <mxCell id="IdU-mIbeNGO67R3H7cQT-55" value="" style="endArrow=none;html=1;rounded=0;exitX=0.5;exitY=0;exitDx=0;exitDy=0;entryX=0.5;entryY=1;entryDx=0;entryDy=0;startArrow=none;" parent="1" source="IdU-mIbeNGO67R3H7cQT-69" target="IdU-mIbeNGO67R3H7cQT-37" edge="1">
                    <mxGeometry relative="1" as="geometry">
                        <mxPoint x="359.9999999999998" y="339.67999999999984" as="sourcePoint"/>
                        <mxPoint x="381.76" as="targetPoint"/>
                    </mxGeometry>
                </mxCell>
                <mxCell id="IdU-mIbeNGO67R3H7cQT-57" value="&lt;font style=&quot;font-size: 19px&quot;&gt;1&lt;/font&gt;" style="resizable=0;html=1;align=right;verticalAlign=bottom;" parent="IdU-mIbeNGO67R3H7cQT-55" connectable="0" vertex="1">
                    <mxGeometry x="1" relative="1" as="geometry">
                        <mxPoint x="25" y="30" as="offset"/>
                    </mxGeometry>
                </mxCell>
                <mxCell id="IdU-mIbeNGO67R3H7cQT-58" value="" style="endArrow=none;html=1;rounded=0;exitX=0.5;exitY=0;exitDx=0;exitDy=0;entryX=1;entryY=0.5;entryDx=0;entryDy=0;startArrow=none;" parent="1" source="IdU-mIbeNGO67R3H7cQT-73" target="IdU-mIbeNGO67R3H7cQT-42" edge="1">
                    <mxGeometry relative="1" as="geometry">
                        <mxPoint x="329.0300000000002" y="371.03999999999996" as="sourcePoint"/>
                        <mxPoint x="130" y="20" as="targetPoint"/>
                    </mxGeometry>
                </mxCell>
                <mxCell id="IdU-mIbeNGO67R3H7cQT-60" value="&lt;font style=&quot;font-size: 19px&quot;&gt;1&lt;/font&gt;" style="resizable=0;html=1;align=right;verticalAlign=bottom;" parent="IdU-mIbeNGO67R3H7cQT-58" connectable="0" vertex="1">
                    <mxGeometry x="1" relative="1" as="geometry">
                        <mxPoint x="21" y="5" as="offset"/>
                    </mxGeometry>
                </mxCell>
                <mxCell id="IdU-mIbeNGO67R3H7cQT-61" value="&lt;font style=&quot;font-size: 12px&quot;&gt;has driveline&lt;/font&gt;" style="shape=rhombus;perimeter=rhombusPerimeter;whiteSpace=wrap;html=1;align=center;fontSize=19;" parent="1" vertex="1">
                    <mxGeometry x="610" y="180" width="120" height="60" as="geometry"/>
                </mxCell>
                <mxCell id="IdU-mIbeNGO67R3H7cQT-62" value="" style="endArrow=none;html=1;rounded=0;exitX=0.75;exitY=0;exitDx=0;exitDy=0;entryX=0;entryY=0.5;entryDx=0;entryDy=0;" parent="1" source="IdU-mIbeNGO67R3H7cQT-1" target="IdU-mIbeNGO67R3H7cQT-61" edge="1">
                    <mxGeometry relative="1" as="geometry">
                        <mxPoint x="512.5" y="360" as="sourcePoint"/>
                        <mxPoint x="780" y="90" as="targetPoint"/>
                    </mxGeometry>
                </mxCell>
                <mxCell id="IdU-mIbeNGO67R3H7cQT-63" value="&lt;font style=&quot;font-size: 19px&quot;&gt;*&lt;/font&gt;" style="resizable=0;html=1;align=left;verticalAlign=bottom;" parent="IdU-mIbeNGO67R3H7cQT-62" connectable="0" vertex="1">
                    <mxGeometry x="-1" relative="1" as="geometry">
                        <mxPoint x="8" y="10" as="offset"/>
                    </mxGeometry>
                </mxCell>
                <mxCell id="IdU-mIbeNGO67R3H7cQT-65" value="&lt;font style=&quot;font-size: 12px&quot;&gt;has transmission&lt;/font&gt;" style="shape=rhombus;perimeter=rhombusPerimeter;whiteSpace=wrap;html=1;align=center;fontSize=19;" parent="1" vertex="1">
                    <mxGeometry x="440" y="110" width="120" height="60" as="geometry"/>
                </mxCell>
                <mxCell id="IdU-mIbeNGO67R3H7cQT-66" value="" style="endArrow=none;html=1;rounded=0;exitX=0.596;exitY=-0.004;exitDx=0;exitDy=0;entryX=0.5;entryY=1;entryDx=0;entryDy=0;exitPerimeter=0;" parent="1" source="IdU-mIbeNGO67R3H7cQT-1" target="IdU-mIbeNGO67R3H7cQT-65" edge="1">
                    <mxGeometry relative="1" as="geometry">
                        <mxPoint x="483.24000000000024" y="359.67999999999984" as="sourcePoint"/>
                        <mxPoint x="505" y="20" as="targetPoint"/>
                    </mxGeometry>
                </mxCell>
                <mxCell id="IdU-mIbeNGO67R3H7cQT-67" value="&lt;font style=&quot;font-size: 19px&quot;&gt;*&lt;/font&gt;" style="resizable=0;html=1;align=left;verticalAlign=bottom;" parent="IdU-mIbeNGO67R3H7cQT-66" connectable="0" vertex="1">
                    <mxGeometry x="-1" relative="1" as="geometry">
                        <mxPoint y="10" as="offset"/>
                    </mxGeometry>
                </mxCell>
                <mxCell id="IdU-mIbeNGO67R3H7cQT-69" value="&lt;font style=&quot;font-size: 12px&quot;&gt;has fuel type&lt;/font&gt;" style="shape=rhombus;perimeter=rhombusPerimeter;whiteSpace=wrap;html=1;align=center;fontSize=19;" parent="1" vertex="1">
                    <mxGeometry x="240" y="110" width="120" height="60" as="geometry"/>
                </mxCell>
                <mxCell id="IdU-mIbeNGO67R3H7cQT-70" value="" style="endArrow=none;html=1;rounded=0;exitX=0.337;exitY=0.013;exitDx=0;exitDy=0;entryX=0.5;entryY=1;entryDx=0;entryDy=0;exitPerimeter=0;" parent="1" source="IdU-mIbeNGO67R3H7cQT-1" target="IdU-mIbeNGO67R3H7cQT-69" edge="1">
                    <mxGeometry relative="1" as="geometry">
                        <mxPoint x="434.0300000000002" y="361.0400000000002" as="sourcePoint"/>
                        <mxPoint x="235" y="10" as="targetPoint"/>
                    </mxGeometry>
                </mxCell>
                <mxCell id="IdU-mIbeNGO67R3H7cQT-71" value="&lt;font style=&quot;font-size: 19px&quot;&gt;*&lt;/font&gt;" style="resizable=0;html=1;align=left;verticalAlign=bottom;" parent="IdU-mIbeNGO67R3H7cQT-70" connectable="0" vertex="1">
                    <mxGeometry x="-1" relative="1" as="geometry">
                        <mxPoint x="-4" y="9" as="offset"/>
                    </mxGeometry>
                </mxCell>
                <mxCell id="IdU-mIbeNGO67R3H7cQT-73" value="&lt;font style=&quot;font-size: 12px&quot;&gt;has mileage&lt;/font&gt;" style="shape=rhombus;perimeter=rhombusPerimeter;whiteSpace=wrap;html=1;align=center;fontSize=19;" parent="1" vertex="1">
                    <mxGeometry x="190" y="220" width="120" height="60" as="geometry"/>
                </mxCell>
                <mxCell id="IdU-mIbeNGO67R3H7cQT-74" value="" style="endArrow=none;html=1;rounded=0;exitX=0.049;exitY=0.013;exitDx=0;exitDy=0;entryX=0.5;entryY=1;entryDx=0;entryDy=0;exitPerimeter=0;" parent="1" source="IdU-mIbeNGO67R3H7cQT-1" target="IdU-mIbeNGO67R3H7cQT-73" edge="1">
                    <mxGeometry relative="1" as="geometry">
                        <mxPoint x="379.3100000000004" y="361.0400000000002" as="sourcePoint"/>
                        <mxPoint x="130" y="180" as="targetPoint"/>
                    </mxGeometry>
                </mxCell>
                <mxCell id="IdU-mIbeNGO67R3H7cQT-75" value="&lt;font style=&quot;font-size: 19px&quot;&gt;*&lt;/font&gt;" style="resizable=0;html=1;align=left;verticalAlign=bottom;" parent="IdU-mIbeNGO67R3H7cQT-74" connectable="0" vertex="1">
                    <mxGeometry x="-1" relative="1" as="geometry">
                        <mxPoint x="-9" y="9" as="offset"/>
                    </mxGeometry>
                </mxCell>
                <mxCell id="2" value="car_id" style="ellipse;whiteSpace=wrap;html=1;align=center;" vertex="1" parent="1">
                    <mxGeometry x="-220" y="250" width="100" height="40" as="geometry"/>
                </mxCell>
                <mxCell id="3" value="" style="endArrow=none;html=1;rounded=0;exitX=0;exitY=1;exitDx=0;exitDy=0;entryX=1;entryY=0.5;entryDx=0;entryDy=0;" edge="1" target="2" parent="1" source="IdU-mIbeNGO67R3H7cQT-42">
                    <mxGeometry relative="1" as="geometry">
                        <mxPoint x="-50" y="270" as="sourcePoint"/>
                        <mxPoint x="130" y="280" as="targetPoint"/>
                    </mxGeometry>
                </mxCell>
                <mxCell id="4" value="car_id" style="ellipse;whiteSpace=wrap;html=1;align=center;" vertex="1" parent="1">
                    <mxGeometry x="-20" y="-50" width="100" height="40" as="geometry"/>
                </mxCell>
                <mxCell id="5" value="" style="endArrow=none;html=1;rounded=0;entryX=1;entryY=0.5;entryDx=0;entryDy=0;exitX=0;exitY=0.5;exitDx=0;exitDy=0;" edge="1" target="4" parent="1" source="IdU-mIbeNGO67R3H7cQT-37">
                    <mxGeometry relative="1" as="geometry">
                        <mxPoint x="120" y="-20" as="sourcePoint"/>
                        <mxPoint x="330" y="-20" as="targetPoint"/>
                    </mxGeometry>
                </mxCell>
                <mxCell id="7" value="car_id" style="ellipse;whiteSpace=wrap;html=1;align=center;" vertex="1" parent="1">
                    <mxGeometry x="670" y="-40" width="100" height="40" as="geometry"/>
                </mxCell>
                <mxCell id="8" value="" style="endArrow=none;html=1;rounded=0;exitX=1;exitY=0.5;exitDx=0;exitDy=0;entryX=0;entryY=0.5;entryDx=0;entryDy=0;" edge="1" target="7" parent="1" source="IdU-mIbeNGO67R3H7cQT-30">
                    <mxGeometry relative="1" as="geometry">
                        <mxPoint x="830" y="-20" as="sourcePoint"/>
                        <mxPoint x="800" y="-10" as="targetPoint"/>
                    </mxGeometry>
                </mxCell>
                <mxCell id="9" value="car_id" style="ellipse;whiteSpace=wrap;html=1;align=center;" vertex="1" parent="1">
                    <mxGeometry x="1035" y="70" width="100" height="40" as="geometry"/>
                </mxCell>
                <mxCell id="10" value="" style="endArrow=none;html=1;rounded=0;exitX=1;exitY=0.5;exitDx=0;exitDy=0;entryX=0;entryY=0.5;entryDx=0;entryDy=0;" edge="1" target="9" parent="1" source="IdU-mIbeNGO67R3H7cQT-25">
                    <mxGeometry relative="1" as="geometry">
                        <mxPoint x="960" y="80" as="sourcePoint"/>
                        <mxPoint x="1165" y="100" as="targetPoint"/>
                    </mxGeometry>
                </mxCell>
            </root>
        </mxGraphModel>
    </diagram>
</mxfile>